<mxfile host="app.diagrams.net" agent="Mozilla/5.0 (X11; Linux x86_64; rv:132.0) Gecko/20100101 Firefox/132.0" version="24.8.6">
  <diagram id="dwqo66k0YME7Xut0gxXL" name="Visitor">
    <mxGraphModel dx="2284" dy="721" grid="1" gridSize="10" guides="1" tooltips="1" connect="1" arrows="1" fold="1" page="1" pageScale="1" pageWidth="850" pageHeight="1100" math="0" shadow="0">
      <root>
        <mxCell id="0" />
        <mxCell id="1" parent="0" />
        <mxCell id="oJLVskUVbNbTNeJDO0Nm-1" value="&lt;p style=&quot;margin:0px;margin-top:4px;text-align:center;&quot;&gt;&lt;i&gt;&amp;lt;&amp;lt;Interface&amp;gt;&amp;gt;&lt;/i&gt;&lt;br&gt;&lt;b&gt;FileSystemElement&lt;/b&gt;&lt;br&gt;&lt;/p&gt;&lt;hr size=&quot;1&quot; style=&quot;border-style:solid;&quot;&gt;&lt;p style=&quot;margin:0px;margin-left:4px;&quot;&gt;+ accept(Visitor): void&lt;br&gt;&lt;/p&gt;" style="verticalAlign=top;align=left;overflow=fill;html=1;whiteSpace=wrap;" vertex="1" parent="1">
          <mxGeometry x="240" y="370" width="190" height="80" as="geometry" />
        </mxCell>
        <mxCell id="oJLVskUVbNbTNeJDO0Nm-2" value="Directory" style="swimlane;fontStyle=1;align=center;verticalAlign=top;childLayout=stackLayout;horizontal=1;startSize=26;horizontalStack=0;resizeParent=1;resizeParentMax=0;resizeLast=0;collapsible=1;marginBottom=0;whiteSpace=wrap;html=1;" vertex="1" parent="1">
          <mxGeometry x="15" y="510" width="280" height="160" as="geometry" />
        </mxCell>
        <mxCell id="oJLVskUVbNbTNeJDO0Nm-3" value="&lt;div&gt;+ private String name&lt;/div&gt;&lt;div&gt;+ private List&amp;lt;FileSystemElement&amp;gt; elements&lt;br&gt;&lt;/div&gt;" style="text;strokeColor=none;fillColor=none;align=left;verticalAlign=top;spacingLeft=4;spacingRight=4;overflow=hidden;rotatable=0;points=[[0,0.5],[1,0.5]];portConstraint=eastwest;whiteSpace=wrap;html=1;" vertex="1" parent="oJLVskUVbNbTNeJDO0Nm-2">
          <mxGeometry y="26" width="280" height="44" as="geometry" />
        </mxCell>
        <mxCell id="oJLVskUVbNbTNeJDO0Nm-4" value="" style="line;strokeWidth=1;fillColor=none;align=left;verticalAlign=middle;spacingTop=-1;spacingLeft=3;spacingRight=3;rotatable=0;labelPosition=right;points=[];portConstraint=eastwest;strokeColor=inherit;" vertex="1" parent="oJLVskUVbNbTNeJDO0Nm-2">
          <mxGeometry y="70" width="280" height="8" as="geometry" />
        </mxCell>
        <mxCell id="oJLVskUVbNbTNeJDO0Nm-5" value="&lt;div&gt;+ public Directory()&lt;/div&gt;&lt;div&gt;+ public addElement(FileSystemElement): void&lt;br&gt;&lt;/div&gt;&lt;div&gt;+ public getName(): String&lt;/div&gt;&lt;div&gt;+ public getElements(): List&amp;lt;FileSystemElement&amp;gt;&lt;/div&gt;&lt;div&gt;+ public accept(Visitor): void&lt;br&gt;&lt;/div&gt;" style="text;strokeColor=none;fillColor=none;align=left;verticalAlign=top;spacingLeft=4;spacingRight=4;overflow=hidden;rotatable=0;points=[[0,0.5],[1,0.5]];portConstraint=eastwest;whiteSpace=wrap;html=1;" vertex="1" parent="oJLVskUVbNbTNeJDO0Nm-2">
          <mxGeometry y="78" width="280" height="82" as="geometry" />
        </mxCell>
        <mxCell id="oJLVskUVbNbTNeJDO0Nm-6" value="File" style="swimlane;fontStyle=1;align=center;verticalAlign=top;childLayout=stackLayout;horizontal=1;startSize=26;horizontalStack=0;resizeParent=1;resizeParentMax=0;resizeLast=0;collapsible=1;marginBottom=0;whiteSpace=wrap;html=1;" vertex="1" parent="1">
          <mxGeometry x="375" y="510" width="280" height="160" as="geometry" />
        </mxCell>
        <mxCell id="oJLVskUVbNbTNeJDO0Nm-7" value="&lt;div&gt;+ private String name&lt;/div&gt;&lt;div&gt;+ private int size&lt;br&gt;&lt;/div&gt;" style="text;strokeColor=none;fillColor=none;align=left;verticalAlign=top;spacingLeft=4;spacingRight=4;overflow=hidden;rotatable=0;points=[[0,0.5],[1,0.5]];portConstraint=eastwest;whiteSpace=wrap;html=1;" vertex="1" parent="oJLVskUVbNbTNeJDO0Nm-6">
          <mxGeometry y="26" width="280" height="44" as="geometry" />
        </mxCell>
        <mxCell id="oJLVskUVbNbTNeJDO0Nm-8" value="" style="line;strokeWidth=1;fillColor=none;align=left;verticalAlign=middle;spacingTop=-1;spacingLeft=3;spacingRight=3;rotatable=0;labelPosition=right;points=[];portConstraint=eastwest;strokeColor=inherit;" vertex="1" parent="oJLVskUVbNbTNeJDO0Nm-6">
          <mxGeometry y="70" width="280" height="8" as="geometry" />
        </mxCell>
        <mxCell id="oJLVskUVbNbTNeJDO0Nm-9" value="&lt;div&gt;+ public File(String, int)&lt;/div&gt;&lt;div&gt;+ public getName(): String&lt;/div&gt;&lt;div&gt;+ public getSize(): int&lt;br&gt;&lt;/div&gt;&lt;div&gt;+ public accept(Visitor): void&lt;br&gt;&lt;/div&gt;" style="text;strokeColor=none;fillColor=none;align=left;verticalAlign=top;spacingLeft=4;spacingRight=4;overflow=hidden;rotatable=0;points=[[0,0.5],[1,0.5]];portConstraint=eastwest;whiteSpace=wrap;html=1;" vertex="1" parent="oJLVskUVbNbTNeJDO0Nm-6">
          <mxGeometry y="78" width="280" height="82" as="geometry" />
        </mxCell>
        <mxCell id="oJLVskUVbNbTNeJDO0Nm-10" value="" style="endArrow=block;dashed=1;endFill=0;endSize=12;html=1;rounded=0;exitX=0.5;exitY=0;exitDx=0;exitDy=0;entryX=0.25;entryY=1;entryDx=0;entryDy=0;" edge="1" parent="1" source="oJLVskUVbNbTNeJDO0Nm-2" target="oJLVskUVbNbTNeJDO0Nm-1">
          <mxGeometry width="160" relative="1" as="geometry">
            <mxPoint x="320" y="500" as="sourcePoint" />
            <mxPoint x="480" y="500" as="targetPoint" />
          </mxGeometry>
        </mxCell>
        <mxCell id="oJLVskUVbNbTNeJDO0Nm-11" value="" style="endArrow=block;dashed=1;endFill=0;endSize=12;html=1;rounded=0;exitX=0.5;exitY=0;exitDx=0;exitDy=0;entryX=0.75;entryY=1;entryDx=0;entryDy=0;" edge="1" parent="1" source="oJLVskUVbNbTNeJDO0Nm-6" target="oJLVskUVbNbTNeJDO0Nm-1">
          <mxGeometry width="160" relative="1" as="geometry">
            <mxPoint x="165" y="520" as="sourcePoint" />
            <mxPoint x="298" y="460" as="targetPoint" />
          </mxGeometry>
        </mxCell>
        <mxCell id="oJLVskUVbNbTNeJDO0Nm-12" value="&lt;p style=&quot;margin:0px;margin-top:4px;text-align:center;&quot;&gt;&lt;i&gt;&amp;lt;&amp;lt;Interface&amp;gt;&amp;gt;&lt;/i&gt;&lt;br&gt;Visitor&lt;br&gt;&lt;/p&gt;&lt;hr size=&quot;1&quot; style=&quot;border-style:solid;&quot;&gt;&lt;p style=&quot;margin:0px;margin-left:4px;&quot;&gt;+ visit(Directory): void&lt;/p&gt;&lt;p style=&quot;margin:0px;margin-left:4px;&quot;&gt;+ visit(File): void&lt;br&gt;&lt;/p&gt;" style="verticalAlign=top;align=left;overflow=fill;html=1;whiteSpace=wrap;" vertex="1" parent="1">
          <mxGeometry x="-480" y="370" width="200" height="80" as="geometry" />
        </mxCell>
        <mxCell id="oJLVskUVbNbTNeJDO0Nm-13" value="SizeVisitor" style="swimlane;fontStyle=1;align=center;verticalAlign=top;childLayout=stackLayout;horizontal=1;startSize=26;horizontalStack=0;resizeParent=1;resizeParentMax=0;resizeLast=0;collapsible=1;marginBottom=0;whiteSpace=wrap;html=1;" vertex="1" parent="1">
          <mxGeometry x="-680" y="520" width="280" height="130" as="geometry" />
        </mxCell>
        <mxCell id="oJLVskUVbNbTNeJDO0Nm-14" value="&lt;div&gt;+ private int totalSize&lt;br&gt;&lt;/div&gt;" style="text;strokeColor=none;fillColor=none;align=left;verticalAlign=top;spacingLeft=4;spacingRight=4;overflow=hidden;rotatable=0;points=[[0,0.5],[1,0.5]];portConstraint=eastwest;whiteSpace=wrap;html=1;" vertex="1" parent="oJLVskUVbNbTNeJDO0Nm-13">
          <mxGeometry y="26" width="280" height="34" as="geometry" />
        </mxCell>
        <mxCell id="oJLVskUVbNbTNeJDO0Nm-15" value="" style="line;strokeWidth=1;fillColor=none;align=left;verticalAlign=middle;spacingTop=-1;spacingLeft=3;spacingRight=3;rotatable=0;labelPosition=right;points=[];portConstraint=eastwest;strokeColor=inherit;" vertex="1" parent="oJLVskUVbNbTNeJDO0Nm-13">
          <mxGeometry y="60" width="280" height="8" as="geometry" />
        </mxCell>
        <mxCell id="oJLVskUVbNbTNeJDO0Nm-16" value="&lt;div&gt;+ public getTotalSize(): int&lt;br&gt;&lt;/div&gt;&lt;div&gt;+ public visit(File): void&lt;/div&gt;&lt;div&gt;+ public visit(Directory): void&lt;br&gt;&lt;/div&gt;" style="text;strokeColor=none;fillColor=none;align=left;verticalAlign=top;spacingLeft=4;spacingRight=4;overflow=hidden;rotatable=0;points=[[0,0.5],[1,0.5]];portConstraint=eastwest;whiteSpace=wrap;html=1;" vertex="1" parent="oJLVskUVbNbTNeJDO0Nm-13">
          <mxGeometry y="68" width="280" height="62" as="geometry" />
        </mxCell>
        <mxCell id="oJLVskUVbNbTNeJDO0Nm-17" value="PrintStructureVisitor" style="swimlane;fontStyle=1;align=center;verticalAlign=top;childLayout=stackLayout;horizontal=1;startSize=26;horizontalStack=0;resizeParent=1;resizeParentMax=0;resizeLast=0;collapsible=1;marginBottom=0;whiteSpace=wrap;html=1;" vertex="1" parent="1">
          <mxGeometry x="-360" y="520" width="280" height="130" as="geometry" />
        </mxCell>
        <mxCell id="oJLVskUVbNbTNeJDO0Nm-18" value="&lt;div&gt;+ private int depth&lt;br&gt;&lt;/div&gt;" style="text;strokeColor=none;fillColor=none;align=left;verticalAlign=top;spacingLeft=4;spacingRight=4;overflow=hidden;rotatable=0;points=[[0,0.5],[1,0.5]];portConstraint=eastwest;whiteSpace=wrap;html=1;" vertex="1" parent="oJLVskUVbNbTNeJDO0Nm-17">
          <mxGeometry y="26" width="280" height="34" as="geometry" />
        </mxCell>
        <mxCell id="oJLVskUVbNbTNeJDO0Nm-19" value="" style="line;strokeWidth=1;fillColor=none;align=left;verticalAlign=middle;spacingTop=-1;spacingLeft=3;spacingRight=3;rotatable=0;labelPosition=right;points=[];portConstraint=eastwest;strokeColor=inherit;" vertex="1" parent="oJLVskUVbNbTNeJDO0Nm-17">
          <mxGeometry y="60" width="280" height="8" as="geometry" />
        </mxCell>
        <mxCell id="oJLVskUVbNbTNeJDO0Nm-20" value="&lt;div&gt;+ public printIndent(): int&lt;br&gt;&lt;/div&gt;&lt;div&gt;+ public visit(File): void&lt;/div&gt;&lt;div&gt;+ public visit(Directory): void&lt;br&gt;&lt;/div&gt;" style="text;strokeColor=none;fillColor=none;align=left;verticalAlign=top;spacingLeft=4;spacingRight=4;overflow=hidden;rotatable=0;points=[[0,0.5],[1,0.5]];portConstraint=eastwest;whiteSpace=wrap;html=1;" vertex="1" parent="oJLVskUVbNbTNeJDO0Nm-17">
          <mxGeometry y="68" width="280" height="62" as="geometry" />
        </mxCell>
        <mxCell id="oJLVskUVbNbTNeJDO0Nm-26" value="" style="endArrow=block;dashed=1;endFill=0;endSize=12;html=1;rounded=0;exitX=0.5;exitY=0;exitDx=0;exitDy=0;entryX=0.25;entryY=1;entryDx=0;entryDy=0;" edge="1" parent="1" source="oJLVskUVbNbTNeJDO0Nm-13" target="oJLVskUVbNbTNeJDO0Nm-12">
          <mxGeometry width="160" relative="1" as="geometry">
            <mxPoint x="-480" y="510" as="sourcePoint" />
            <mxPoint x="-347" y="450" as="targetPoint" />
          </mxGeometry>
        </mxCell>
        <mxCell id="oJLVskUVbNbTNeJDO0Nm-27" value="" style="endArrow=block;dashed=1;endFill=0;endSize=12;html=1;rounded=0;exitX=0.5;exitY=0;exitDx=0;exitDy=0;entryX=0.75;entryY=1;entryDx=0;entryDy=0;" edge="1" parent="1" source="oJLVskUVbNbTNeJDO0Nm-17" target="oJLVskUVbNbTNeJDO0Nm-12">
          <mxGeometry width="160" relative="1" as="geometry">
            <mxPoint x="-120" y="510" as="sourcePoint" />
            <mxPoint x="-252" y="450" as="targetPoint" />
          </mxGeometry>
        </mxCell>
        <mxCell id="oJLVskUVbNbTNeJDO0Nm-29" value="elements" style="shape=umlFrame;whiteSpace=wrap;html=1;pointerEvents=0;" vertex="1" parent="1">
          <mxGeometry x="-10" y="470" width="680" height="220" as="geometry" />
        </mxCell>
        <mxCell id="oJLVskUVbNbTNeJDO0Nm-28" value="" style="endArrow=open;endSize=12;dashed=1;html=1;rounded=0;exitX=1;exitY=0.75;exitDx=0;exitDy=0;" edge="1" parent="1" source="oJLVskUVbNbTNeJDO0Nm-12">
          <mxGeometry width="160" relative="1" as="geometry">
            <mxPoint x="-260" y="460" as="sourcePoint" />
            <mxPoint x="-10" y="540" as="targetPoint" />
            <Array as="points">
              <mxPoint x="-170" y="430" />
              <mxPoint x="-50" y="430" />
              <mxPoint x="-50" y="540" />
            </Array>
          </mxGeometry>
        </mxCell>
        <mxCell id="oJLVskUVbNbTNeJDO0Nm-30" value="" style="endArrow=open;endSize=12;dashed=1;html=1;rounded=0;exitX=0;exitY=0.5;exitDx=0;exitDy=0;entryX=1;entryY=0.5;entryDx=0;entryDy=0;" edge="1" parent="1" source="oJLVskUVbNbTNeJDO0Nm-1" target="oJLVskUVbNbTNeJDO0Nm-12">
          <mxGeometry width="160" relative="1" as="geometry">
            <mxPoint x="-270" y="440" as="sourcePoint" />
            <mxPoint y="550" as="targetPoint" />
            <Array as="points">
              <mxPoint x="10" y="410" />
              <mxPoint x="-50" y="410" />
            </Array>
          </mxGeometry>
        </mxCell>
        <mxCell id="oJLVskUVbNbTNeJDO0Nm-31" value="visitors" style="shape=umlFrame;whiteSpace=wrap;html=1;pointerEvents=0;" vertex="1" parent="1">
          <mxGeometry x="-710" y="480" width="650" height="190" as="geometry" />
        </mxCell>
        <mxCell id="oJLVskUVbNbTNeJDO0Nm-32" value="Application" style="html=1;whiteSpace=wrap;" vertex="1" parent="1">
          <mxGeometry x="-90" y="820" width="110" height="50" as="geometry" />
        </mxCell>
        <mxCell id="oJLVskUVbNbTNeJDO0Nm-33" value="" style="endArrow=open;endSize=12;dashed=1;html=1;rounded=0;exitX=0;exitY=0.5;exitDx=0;exitDy=0;entryX=0.511;entryY=1.005;entryDx=0;entryDy=0;entryPerimeter=0;" edge="1" parent="1" source="oJLVskUVbNbTNeJDO0Nm-32" target="oJLVskUVbNbTNeJDO0Nm-31">
          <mxGeometry width="160" relative="1" as="geometry">
            <mxPoint x="250" y="420" as="sourcePoint" />
            <mxPoint x="-270" y="420" as="targetPoint" />
            <Array as="points">
              <mxPoint x="-380" y="845" />
            </Array>
          </mxGeometry>
        </mxCell>
        <mxCell id="oJLVskUVbNbTNeJDO0Nm-34" value="" style="endArrow=open;endSize=12;dashed=1;html=1;rounded=0;exitX=1;exitY=0.5;exitDx=0;exitDy=0;entryX=1;entryY=0.5;entryDx=0;entryDy=0;" edge="1" parent="1" source="oJLVskUVbNbTNeJDO0Nm-32" target="oJLVskUVbNbTNeJDO0Nm-1">
          <mxGeometry width="160" relative="1" as="geometry">
            <mxPoint x="-80" y="855" as="sourcePoint" />
            <mxPoint x="-368" y="681" as="targetPoint" />
            <Array as="points">
              <mxPoint x="690" y="845" />
              <mxPoint x="690" y="620" />
              <mxPoint x="690" y="410" />
            </Array>
          </mxGeometry>
        </mxCell>
      </root>
    </mxGraphModel>
  </diagram>
</mxfile>
